<svg id="Слой_1" data-name="Слой 1" xmlns="http://www.w3.org/2000/svg" viewBox="0 0 246.78 81.39"><defs><style>.cls-1{fill:#592c82;}</style></defs><path class="cls-1" d="M177.22,16.33l-2.59-.21-.48,1.12L170,28.93l-7.35,19a43.26,43.26,0,0,1-1.9,4.26c-.41.93-1.08,2.33-2,4.16V63.9l.82.16q1.18-3.72,5.88-15,3.84-9.37,8.67-20.4,4.43-10.15,5.67-12.54Z"/><path class="cls-1" d="M48.81,64.06l-3.64-.28L41.46,64c-1.67-4.8-3.1-8.68-4.27-11.61-.75-1.87-1.77-4.3-3.08-7.28H16.33c-2.69,6.77-4.22,10.61-4.55,11.54q-1,2.8-2.37,7.35l-2.59-.21L4.37,64,26.21,15.07h1.6ZM25.29,24.24,17.66,42.16h15.4Z"/><path class="cls-1" d="M55.3,16.12H70.14q8,0,11.75,2.61t3.78,8a11.2,11.2,0,0,1-4.48,9.21A22.11,22.11,0,0,1,71.33,40L85.67,58.36l3.41,4,1.35,1.75-4-.28-4,.21L78,57.88,69.73,47.14l-5.61-6.6H61.45V64l-3.07-.21L55.3,64ZM61.45,38H65c1,0,2,0,2.88-.07a14.8,14.8,0,0,0,2.6-.35A12.39,12.39,0,0,0,77,34.09a9,9,0,0,0,2.53-6.52q0-7.53-7.73-8.79a26.67,26.67,0,0,0-3.66-.21H61.45Z"/><path class="cls-1" d="M138.91,64.06l-3.65-.28-3.69.21c-1.69-4.8-3.11-8.68-4.28-11.61-.75-1.87-1.77-4.3-3.08-7.28H106.44c-2.72,6.77-4.23,10.61-4.56,11.54q-1,2.8-2.38,7.35l-2.59-.21L94.46,64l21.85-48.92h1.6ZM115.4,24.24l-7.64,17.92h15.39Z"/><path class="cls-1" d="M186.2,16.12l3.08.21,3.07-.21V64.06l-3.07-.28L186.2,64Z"/><path class="cls-1" d="M243.49,64.06l-3.64-.28-3.7.21c-1.68-4.8-3.1-8.68-4.27-11.61-.75-1.87-1.77-4.3-3.08-7.28H211Q207,55.26,206.48,56.64q-1,2.8-2.39,7.35l-2.59-.21-2.44.21,21.83-48.92h1.62ZM220,24.24l-7.63,17.92h15.4Z"/><path class="cls-1" d="M158.68,56.37l-18-43.19-1.6-4c-2.59-6.49-9.61-7.09-12.7-7-.64,0-1.28.1-1.52.1V3.78c4.41.39,6.32,2.33,8.8,8.13l.39.87h0l19,43.14.13.29,3.46,7.85h2.88l1.08-3Z"/><path class="cls-1" d="M10.56,74.09a3.65,3.65,0,0,1-3.82,3.69,3.42,3.42,0,0,1-3.69-3.53,3.56,3.56,0,0,1,3.76-3.64A3.43,3.43,0,0,1,10.56,74.09Zm-6.48.16c0,1.64.89,3.08,2.7,3.08,1.64,0,2.75-1.22,2.75-3.21s-.94-3.06-2.7-3.06S4.08,72.25,4.08,74.25Z"/><path class="cls-1" d="M17.48,70.39l.46,0,0,.78c1.93,0,3.65,1,3.65,2.88s-1.72,3-3.64,3l0,.87-.47,0-.54,0,0-.87c-1.93,0-3.64-1.21-3.64-3S15,71.15,17,71.15l-.05-.78ZM17,73.78c0-.44,0-2,0-2.26a2.45,2.45,0,0,0-2.63,2.53A2.61,2.61,0,0,0,17,76.69C17,76.3,17,74.41,17,73.78Zm.86,0c0,.63,0,2.52,0,2.91a2.61,2.61,0,0,0,2.62-2.64,2.46,2.46,0,0,0-2.63-2.53C17.88,71.82,17.87,73.34,17.87,73.78Z"/><path class="cls-1" d="M25.35,70.76l.47,0c-.07.52-.08,2.15-.08,3.23V76.1a68,68,0,0,0,4.89-5.37.69.69,0,0,0,.2,0l.25,0C31,71.25,31,72.88,31,74s0,2.65.08,3.7l-.48,0-.53,0c.06-1,.08-2.5.08-3.7V72.39c-1.5,1.38-3.78,3.91-4.94,5.27a.71.71,0,0,0-.21,0,.5.5,0,0,0-.19,0c.05-1,.07-2.5.07-3.7s0-2.71-.07-3.23Z"/><path class="cls-1" d="M35.37,70.76l.47,0c-.07.52-.08,2.15-.08,3.23s0,2.67.05,3c1.11.08,1.57.09,2.13.09s.93,0,1.87-.09c0-.69,0-2,0-3s0-2.71-.08-3.23l.55,0,.46,0c-.06.52-.07,2.15-.07,3.23s0,2.35.05,3.14l.76-.07-.21,2.18H41c0-1.5-.31-1.58-1.59-1.58H36.63c-.6,0-1.48,0-1.8,0,.05-1,.07-2.5.07-3.7s0-2.71-.07-3.23Z"/><path class="cls-1" d="M45.08,70.76l.47,0c-.07.52-.08,2.15-.08,3.23V76.1a70.1,70.1,0,0,0,4.9-5.37.6.6,0,0,0,.2,0l.24,0c-.06.52-.07,2.15-.07,3.23s0,2.65.07,3.7l-.47,0-.54,0c.06-1,.08-2.5.08-3.7V72.39c-1.5,1.38-3.78,3.91-4.94,5.27a.66.66,0,0,0-.21,0,.54.54,0,0,0-.19,0c.06-1,.08-2.5.08-3.7s0-2.71-.08-3.23Z"/><path class="cls-1" d="M57.17,70.76c.34.85,2.34,5.55,3,6.89l-.53,0-.56,0c-.26-.64-.81-2.06-1-2.59A8.52,8.52,0,0,0,56.74,75a6.92,6.92,0,0,0-1.18.09c-.32.64-.84,2.1-1,2.59l-.36,0-.41,0c.73-1.24,2.84-6.19,3.15-6.89ZM55.85,74.4a8.63,8.63,0,0,0,1,.07,8.88,8.88,0,0,0,.94-.07c-.2-.53-.39-1-.94-2.22Z"/><path class="cls-1" d="M65.8,70.76c.34.85,2.33,5.55,3,6.89l-.54,0-.55,0c-.52-1.35-1.65-4-2.31-5.47-.35.77-1.6,3.58-2.27,5.47l-.36,0-.4,0c.73-1.24,2.83-6.19,3.15-6.89Z"/><path class="cls-1" d="M72.35,70.76l.47,0c-.07.52-.08,2.15-.08,3a4.38,4.38,0,0,1,.5,0c1.08,0,3.07.09,3.07,2,0,1.38-1.11,2-2.71,2l-.89,0c-.29,0-.66,0-.9,0,.06-1,.08-2.5.08-3.7s0-2.71-.08-3.23Zm.44,6.35.76,0c1.15,0,1.79-.54,1.79-1.55s-.82-1.4-2.12-1.4a1.78,1.78,0,0,0-.48.08C72.74,75.16,72.76,76.17,72.79,77.11Z"/><path class="cls-1" d="M80.38,73.64c1,0,1.8.06,2.23.06s1.08,0,1.88-.07c0-.75,0-2.38-.08-2.9l.54,0,.47,0c-.07.52-.08,2.15-.08,3.23s0,2.65.08,3.7l-.48,0-.53,0c.06-1,.08-2.62.08-3.38-.8,0-1.41-.07-1.93-.07s-1.18,0-2.18.07c0,.78,0,2.33.07,3.38l-.47,0-.54,0c.06-1,.08-2.5.08-3.7s0-2.71-.08-3.23l.55,0,.46,0C80.39,71.25,80.38,72.88,80.38,73.64Z"/><path class="cls-1" d="M89.71,70.76l.47,0c-.07.52-.08,2.15-.08,3a4,4,0,0,1,.49,0c1.08,0,3.08.09,3.08,2,0,1.38-1.11,2-2.71,2l-.89,0c-.3,0-.67,0-.91,0,.06-1,.08-2.5.08-3.7s0-2.71-.08-3.23Zm.44,6.35.76,0c1.14,0,1.78-.54,1.78-1.55s-.82-1.4-2.11-1.4a1.72,1.72,0,0,0-.48.08C90.1,75.16,90.12,76.17,90.15,77.11Zm5.24-6.35.47,0c-.07.52-.08,2.15-.08,3.23s0,2.65.08,3.7l-.48,0-.53,0c.06-1,.07-2.5.07-3.7s0-2.71-.07-3.23Z"/><path class="cls-1" d="M100.15,70.76l.47,0c-.07.52-.08,2.15-.08,3.23V76.1a68,68,0,0,0,4.89-5.37.64.64,0,0,0,.2,0l.25,0c-.07.52-.08,2.15-.08,3.23s0,2.65.08,3.7l-.48,0-.53,0c.06-1,.07-2.5.07-3.7V72.39c-1.49,1.38-3.77,3.91-4.94,5.27a.62.62,0,0,0-.21,0,.58.58,0,0,0-.19,0c.06-1,.08-2.5.08-3.7s0-2.71-.08-3.23Zm4.57-1.19a3.23,3.23,0,0,1-1.81.54,2.92,2.92,0,0,1-1.72-.52,2.53,2.53,0,0,0,.12-.89h.06a1.41,1.41,0,0,0,1.53,1,1.58,1.58,0,0,0,1.62-1h0A2.87,2.87,0,0,0,104.72,69.57Z"/><path class="cls-1" d="M114.86,70.76l.47,0c-.07.52-.08,2.15-.08,3.23V76.1a68,68,0,0,0,4.89-5.37.69.69,0,0,0,.2,0,1.21,1.21,0,0,0,.25,0c-.06.52-.07,2.15-.07,3.23s0,2.65.07,3.7l-.47,0-.54,0c.06-1,.08-2.5.08-3.7V72.39c-1.5,1.38-3.78,3.91-4.94,5.27a.71.71,0,0,0-.21,0,.5.5,0,0,0-.19,0c.05-1,.07-2.5.07-3.7s0-2.71-.07-3.23Z"/><path class="cls-1" d="M125.27,73.64c1,0,1.8.06,2.23.06s1.08,0,1.88-.07c0-.75,0-2.38-.08-2.9l.55,0,.47,0c-.07.52-.08,2.15-.08,3.23s0,2.65.08,3.7l-.48,0-.54,0c.06-1,.08-2.62.08-3.38-.8,0-1.4-.07-1.93-.07s-1.18,0-2.18.07c0,.78,0,2.33.08,3.38l-.48,0-.54,0c.06-1,.08-2.5.08-3.7s0-2.71-.08-3.23l.55,0,.47,0C125.28,71.25,125.27,72.88,125.27,73.64Z"/><path class="cls-1" d="M136.33,74c0,1.2,0,2.65.07,3.7l-.47,0-.54,0c.06-1,.08-2.5.08-3.7,0-.74,0-2.17,0-2.7h-.18a13.39,13.39,0,0,0-1.87.08c0-.11,0-.25,0-.32s0-.23,0-.34c.48,0,1.65.08,2.52.08s2-.05,2.52-.08c0,.11,0,.27,0,.34s0,.21,0,.32a13.5,13.5,0,0,0-1.87-.08h-.18C136.34,71.79,136.33,73.22,136.33,74Z"/><path class="cls-1" d="M142.89,70.76H144c.18,0,.8,0,1.17-.08a1.62,1.62,0,0,0,0,.31,1.94,1.94,0,0,0,0,.35c-.6-.06-1.25-.08-1.87-.08l-.78,0c0,.58-.05,1.13-.05,1.34v1.17h.72a11.58,11.58,0,0,0,1.73-.09,1.86,1.86,0,0,0,0,.34,2.26,2.26,0,0,0,0,.33c-.27-.05-1.52-.08-2.45-.08v1.4c0,.29,0,1.17,0,1.44h.93c.47,0,1.16,0,1.75-.08,0,.11,0,.33,0,.37a1.29,1.29,0,0,0,0,.24c-.39,0-1.09,0-1.68,0h-.7c-.59,0-1,0-1.27,0,.06-1,.08-2.5.08-3.7s0-2.71-.08-3.23C141.7,70.75,142.42,70.76,142.89,70.76Z"/><path class="cls-1" d="M149.39,70.76c.34,0,.76,0,1,0,1.77,0,2.45.53,2.45,1.73,0,1.56-1.3,2.05-2.86,2.05l-.63,0v1.65a13.18,13.18,0,0,0,.08,1.53,3.91,3.91,0,0,0-.49,0,4.28,4.28,0,0,0-.52,0c.06-1,.07-2.5.07-3.7s0-2.71-.07-3.23Zm.37,3.25c1.34,0,2.12-.54,2.12-1.55s-.74-1.2-1.67-1.2c-.16,0-.71,0-.85,0V74Z"/><path class="cls-1" d="M157,73.64c1,0,1.81.06,2.24.06s1.07,0,1.87-.07c0-.75,0-2.38-.07-2.9l.54,0,.47,0c-.07.52-.08,2.15-.08,3.23s0,2.65.08,3.7l-.48,0-.53,0c0-1,.07-2.62.07-3.38-.8,0-1.4-.07-1.92-.07s-1.19,0-2.19.07c0,.78,0,2.33.08,3.38l-.48,0-.53,0c.06-1,.08-2.5.08-3.7s0-2.71-.08-3.23l.54,0,.47,0C157.05,71.25,157,72.88,157,73.64Z"/><path class="cls-1" d="M167.24,70.76h1.06c.18,0,.8,0,1.17-.08a1.62,1.62,0,0,0,0,.31,1.94,1.94,0,0,0,0,.35c-.6-.06-1.24-.08-1.86-.08l-.79,0c0,.58,0,1.13,0,1.34v1.17h.72a11.58,11.58,0,0,0,1.73-.09,1.86,1.86,0,0,0,0,.34,2.26,2.26,0,0,0,0,.33c-.27-.05-1.52-.08-2.45-.08v1.4c0,.29,0,1.17,0,1.44h.93c.47,0,1.16,0,1.75-.08,0,.11,0,.33,0,.37a1.29,1.29,0,0,0,0,.24c-.39,0-1.09,0-1.67,0h-.71c-.59,0-1,0-1.27,0,.06-1,.08-2.5.08-3.7s0-2.71-.08-3.23C166.05,70.75,166.78,70.76,167.24,70.76Z"/><path class="cls-1" d="M175.05,74c0,1.2,0,2.65.07,3.7l-.47,0-.54,0c.06-1,.08-2.5.08-3.7,0-.74,0-2.17,0-2.7H174a13.39,13.39,0,0,0-1.87.08c0-.11,0-.25,0-.32s0-.23,0-.34c.48,0,1.65.08,2.52.08s2-.05,2.52-.08c0,.11,0,.27,0,.34s0,.21,0,.32a13.5,13.5,0,0,0-1.87-.08h-.18C175.06,71.79,175.05,73.22,175.05,74Z"/><path class="cls-1" d="M182.62,74.85v.53h-3.16v-.53Z"/><path class="cls-1" d="M186.25,70.76c.46,1,2.38,4.62,2.93,5.45.78-1.46,2-3.64,2.95-5.45h.19c.21,2.06.63,5.66.83,6.9l-.47,0a4.63,4.63,0,0,0-.51,0c0-.73-.37-3.83-.52-5.06-.38.63-1.77,3.31-2.61,5h-.18c-.53-1.1-1.7-3.42-2.53-4.95a48.75,48.75,0,0,0-.5,5,2.19,2.19,0,0,0-.36,0,2.33,2.33,0,0,0-.4,0c.26-1.31.81-5.37,1-6.9Z"/><path class="cls-1" d="M199.06,70.76c.35.85,2.34,5.55,3.05,6.89l-.54,0-.55,0c-.27-.64-.81-2.06-1.06-2.59a8.48,8.48,0,0,0-1.32-.09,7,7,0,0,0-1.19.09c-.31.64-.84,2.1-1,2.59l-.36,0-.4,0c.72-1.24,2.83-6.19,3.15-6.89Zm-1.31,3.64a8.62,8.62,0,0,0,1,.07,9.24,9.24,0,0,0,.95-.07c-.2-.53-.4-1-.95-2.22Z"/><path class="cls-1" d="M206.47,70.76h.95c.18,0,1,0,1.41-.08a1.63,1.63,0,0,0,0,.31,1.9,1.9,0,0,0,0,.35c-.61-.06-1.57-.08-2-.08H206c0,.14,0,1.62,0,2.7s0,2.65.08,3.7l-.48,0-.53,0c0-1,.07-2.5.07-3.7s0-2.71-.07-3.23C205.48,70.75,206,70.76,206.47,70.76Z"/><path class="cls-1" d="M213.64,70.76c.35.85,2.34,5.55,3.05,6.89l-.54,0-.55,0c-.27-.64-.81-2.06-1.06-2.59a8.48,8.48,0,0,0-1.32-.09,7,7,0,0,0-1.19.09c-.31.64-.84,2.1-1,2.59l-.36,0-.4,0c.72-1.24,2.83-6.19,3.15-6.89Zm-1.31,3.64a8.62,8.62,0,0,0,1,.07,9.24,9.24,0,0,0,1-.07c-.2-.53-.4-1-1-2.22Z"/><path class="cls-1" d="M219.37,71.93a5.75,5.75,0,0,0-.23-.7,2.71,2.71,0,0,1,1.87-.62c1.18,0,2.38.37,2.38,1.73,0,.61-.25,1.32-1.55,1.64,1.33.2,1.84.89,1.84,1.73,0,1.39-1.3,2.07-2.61,2.07a3,3,0,0,1-2.09-.73,3,3,0,0,0,.16-.72l.14,0a2.15,2.15,0,0,0,1.81,1,1.46,1.46,0,0,0,1.62-1.62c0-.91-.65-1.44-1.7-1.44a7,7,0,0,0-.82.06,1.36,1.36,0,0,0,0-.29,1.15,1.15,0,0,0,0-.33,7.93,7.93,0,0,0,.85.08,1.45,1.45,0,0,0,1.45-1.43,1.4,1.4,0,0,0-1.47-1.3,1.51,1.51,0,0,0-1.49.9Z"/><path class="cls-1" d="M227.59,70.76l.46,0c-.06.52-.07,2.15-.07,3.23V76.1a68,68,0,0,0,4.89-5.37.64.64,0,0,0,.2,0l.25,0c-.07.52-.08,2.15-.08,3.23s0,2.65.08,3.7l-.48,0-.53,0c.05-1,.07-2.5.07-3.7V72.39c-1.49,1.38-3.77,3.91-4.94,5.27a.62.62,0,0,0-.21,0,.58.58,0,0,0-.19,0c.06-1,.08-2.5.08-3.7s0-2.71-.08-3.23Z"/><path class="cls-1" d="M238,73.64c1,0,1.8.06,2.23.06s1.07,0,1.88-.07c0-.75,0-2.38-.08-2.9l.54,0,.47,0c-.07.52-.08,2.15-.08,3.23s0,2.65.08,3.7l-.48,0-.53,0c.06-1,.08-2.62.08-3.38-.81,0-1.41-.07-1.93-.07s-1.18,0-2.18.07c0,.78,0,2.33.07,3.38l-.48,0-.53,0c.06-1,.08-2.5.08-3.7s0-2.71-.08-3.23l.54,0,.47,0C238,71.25,238,72.88,238,73.64Z"/></svg>